<mxfile host="app.diagrams.net" agent="Mozilla/5.0 (Windows NT 10.0; Win64; x64) AppleWebKit/537.36 (KHTML, like Gecko) Chrome/128.0.0.0 Safari/537.36" version="24.7.12">
  <diagram name="第 1 页" id="2jIvbOTID2RGHfevsf0Z">
    <mxGraphModel dx="1038" dy="623" grid="1" gridSize="10" guides="1" tooltips="1" connect="1" arrows="1" fold="1" page="1" pageScale="1" pageWidth="1169" pageHeight="1654" math="0" shadow="0">
      <root>
        <mxCell id="0" />
        <mxCell id="1" parent="0" />
        <mxCell id="aJzNuYuJcPRWzjmUSJ6a-50" value="&lt;div style=&quot;&quot;&gt;&lt;span style=&quot;font-family: Verdana; background-color: initial;&quot;&gt;&lt;font style=&quot;font-size: 19px;&quot;&gt;&lt;b&gt;目录树编辑&lt;/b&gt;&lt;/font&gt;&lt;/span&gt;&lt;br&gt;&lt;/div&gt;" style="shape=ext;double=1;rounded=1;whiteSpace=wrap;html=1;align=center;verticalAlign=middle;fontFamily=Helvetica;fontSize=12;sketch=1;curveFitting=1;jiggle=2;fillColor=#dae8fc;strokeColor=#6c8ebf;horizontal=1;textDirection=vertical-lr;" parent="1" vertex="1">
          <mxGeometry x="140" y="130" width="50" height="660" as="geometry" />
        </mxCell>
        <mxCell id="kaHUVRl_LLqGkyTW9aTp-2" value="&lt;font face=&quot;Verdana&quot;&gt;&lt;span style=&quot;font-size: 19px;&quot;&gt;&lt;b&gt;数据编辑&lt;/b&gt;&lt;/span&gt;&lt;/font&gt;" style="shape=ext;double=1;rounded=1;whiteSpace=wrap;html=1;align=center;verticalAlign=middle;fontFamily=Helvetica;fontSize=12;sketch=1;curveFitting=1;jiggle=2;fillColor=#f5f5f5;strokeColor=#666666;horizontal=1;textDirection=vertical-lr;fontColor=#333333;" vertex="1" parent="1">
          <mxGeometry x="210" y="130" width="50" height="420" as="geometry" />
        </mxCell>
        <mxCell id="kaHUVRl_LLqGkyTW9aTp-3" value="&lt;font face=&quot;Verdana&quot;&gt;&lt;span style=&quot;font-size: 19px;&quot;&gt;&lt;b&gt;用例发布&lt;/b&gt;&lt;/span&gt;&lt;/font&gt;" style="shape=ext;double=1;rounded=1;whiteSpace=wrap;html=1;align=center;verticalAlign=middle;fontFamily=Helvetica;fontSize=12;sketch=1;curveFitting=1;jiggle=2;fillColor=#f5f5f5;strokeColor=#666666;horizontal=1;textDirection=vertical-lr;fontColor=#333333;" vertex="1" parent="1">
          <mxGeometry x="210" y="570" width="50" height="220" as="geometry" />
        </mxCell>
        <mxCell id="aJzNuYuJcPRWzjmUSJ6a-13" value="" style="shape=table;startSize=0;container=1;collapsible=0;childLayout=tableLayout;fillColor=#ffe6cc;strokeColor=#d79b00;sketch=1;curveFitting=1;jiggle=2;fontStyle=1" parent="1" vertex="1">
          <mxGeometry x="440" y="130" width="500" height="40" as="geometry" />
        </mxCell>
        <mxCell id="aJzNuYuJcPRWzjmUSJ6a-14" value="" style="shape=tableRow;horizontal=0;startSize=0;swimlaneHead=0;swimlaneBody=0;strokeColor=inherit;top=0;left=0;bottom=0;right=0;collapsible=0;dropTarget=0;fillColor=none;points=[[0,0.5],[1,0.5]];portConstraint=eastwest;fontStyle=1" parent="aJzNuYuJcPRWzjmUSJ6a-13" vertex="1">
          <mxGeometry width="500" height="40" as="geometry" />
        </mxCell>
        <mxCell id="aJzNuYuJcPRWzjmUSJ6a-15" value="用例" style="shape=partialRectangle;html=1;whiteSpace=wrap;connectable=0;strokeColor=inherit;overflow=hidden;fillColor=none;top=0;left=0;bottom=0;right=0;pointerEvents=1;fontStyle=1" parent="aJzNuYuJcPRWzjmUSJ6a-14" vertex="1">
          <mxGeometry width="125" height="40" as="geometry">
            <mxRectangle width="125" height="40" as="alternateBounds" />
          </mxGeometry>
        </mxCell>
        <mxCell id="aJzNuYuJcPRWzjmUSJ6a-16" value="CA" style="shape=partialRectangle;html=1;whiteSpace=wrap;connectable=0;strokeColor=inherit;overflow=hidden;fillColor=none;top=0;left=0;bottom=0;right=0;pointerEvents=1;fontStyle=1" parent="aJzNuYuJcPRWzjmUSJ6a-14" vertex="1">
          <mxGeometry x="125" width="125" height="40" as="geometry">
            <mxRectangle width="125" height="40" as="alternateBounds" />
          </mxGeometry>
        </mxCell>
        <mxCell id="aJzNuYuJcPRWzjmUSJ6a-17" value="CA" style="shape=partialRectangle;html=1;whiteSpace=wrap;connectable=0;strokeColor=inherit;overflow=hidden;fillColor=none;top=0;left=0;bottom=0;right=0;pointerEvents=1;fontStyle=1" parent="aJzNuYuJcPRWzjmUSJ6a-14" vertex="1">
          <mxGeometry x="250" width="125" height="40" as="geometry">
            <mxRectangle width="125" height="40" as="alternateBounds" />
          </mxGeometry>
        </mxCell>
        <mxCell id="aJzNuYuJcPRWzjmUSJ6a-18" value="BA" style="shape=partialRectangle;html=1;whiteSpace=wrap;connectable=0;strokeColor=inherit;overflow=hidden;fillColor=none;top=0;left=0;bottom=0;right=0;pointerEvents=1;fontStyle=1" parent="aJzNuYuJcPRWzjmUSJ6a-14" vertex="1">
          <mxGeometry x="375" width="125" height="40" as="geometry">
            <mxRectangle width="125" height="40" as="alternateBounds" />
          </mxGeometry>
        </mxCell>
        <mxCell id="aJzNuYuJcPRWzjmUSJ6a-25" value="" style="shape=table;startSize=0;container=1;collapsible=0;childLayout=tableLayout;fillColor=#f8cecc;strokeColor=#b85450;sketch=1;curveFitting=1;jiggle=2;fontStyle=1" parent="1" vertex="1">
          <mxGeometry x="440" y="250" width="500" height="80" as="geometry" />
        </mxCell>
        <mxCell id="aJzNuYuJcPRWzjmUSJ6a-26" value="" style="shape=tableRow;horizontal=0;startSize=0;swimlaneHead=0;swimlaneBody=0;strokeColor=inherit;top=0;left=0;bottom=0;right=0;collapsible=0;dropTarget=0;fillColor=none;points=[[0,0.5],[1,0.5]];portConstraint=eastwest;fontStyle=1" parent="aJzNuYuJcPRWzjmUSJ6a-25" vertex="1">
          <mxGeometry width="500" height="80" as="geometry" />
        </mxCell>
        <mxCell id="aJzNuYuJcPRWzjmUSJ6a-27" value="移动&lt;div&gt;删除&lt;/div&gt;&lt;div&gt;复制&lt;/div&gt;&lt;div&gt;粘贴&lt;/div&gt;" style="shape=partialRectangle;html=1;whiteSpace=wrap;connectable=0;strokeColor=inherit;overflow=hidden;fillColor=none;top=0;left=0;bottom=0;right=0;pointerEvents=1;fontStyle=1" parent="aJzNuYuJcPRWzjmUSJ6a-26" vertex="1">
          <mxGeometry width="125" height="80" as="geometry">
            <mxRectangle width="125" height="80" as="alternateBounds" />
          </mxGeometry>
        </mxCell>
        <mxCell id="aJzNuYuJcPRWzjmUSJ6a-28" value="移动&lt;div&gt;删除&lt;/div&gt;&lt;div&gt;复制&lt;/div&gt;&lt;div&gt;粘贴&lt;/div&gt;&lt;div&gt;回退&lt;/div&gt;" style="shape=partialRectangle;html=1;whiteSpace=wrap;connectable=0;strokeColor=inherit;overflow=hidden;fillColor=none;top=0;left=0;bottom=0;right=0;pointerEvents=1;fontStyle=1" parent="aJzNuYuJcPRWzjmUSJ6a-26" vertex="1">
          <mxGeometry x="125" width="125" height="80" as="geometry">
            <mxRectangle width="125" height="80" as="alternateBounds" />
          </mxGeometry>
        </mxCell>
        <mxCell id="aJzNuYuJcPRWzjmUSJ6a-29" value="移动&lt;div&gt;删除&lt;/div&gt;&lt;div&gt;复制&lt;/div&gt;&lt;div&gt;粘贴&lt;/div&gt;&lt;div&gt;回退&lt;/div&gt;" style="shape=partialRectangle;html=1;whiteSpace=wrap;connectable=0;strokeColor=inherit;overflow=hidden;fillColor=none;top=0;left=0;bottom=0;right=0;pointerEvents=1;fontStyle=1" parent="aJzNuYuJcPRWzjmUSJ6a-26" vertex="1">
          <mxGeometry x="250" width="125" height="80" as="geometry">
            <mxRectangle width="125" height="80" as="alternateBounds" />
          </mxGeometry>
        </mxCell>
        <mxCell id="aJzNuYuJcPRWzjmUSJ6a-30" value="移动&lt;div&gt;删除&lt;/div&gt;&lt;div&gt;复制&lt;/div&gt;&lt;div&gt;粘贴&lt;/div&gt;&lt;div&gt;回退&lt;/div&gt;" style="shape=partialRectangle;html=1;whiteSpace=wrap;connectable=0;strokeColor=inherit;overflow=hidden;fillColor=none;top=0;left=0;bottom=0;right=0;pointerEvents=1;fontStyle=1" parent="aJzNuYuJcPRWzjmUSJ6a-26" vertex="1">
          <mxGeometry x="375" width="125" height="80" as="geometry">
            <mxRectangle width="125" height="80" as="alternateBounds" />
          </mxGeometry>
        </mxCell>
        <mxCell id="aJzNuYuJcPRWzjmUSJ6a-31" value="" style="shape=table;startSize=0;container=1;collapsible=0;childLayout=tableLayout;fillColor=#d5e8d4;strokeColor=#82b366;sketch=1;curveFitting=1;jiggle=2;fontStyle=1" parent="1" vertex="1">
          <mxGeometry x="440" y="194.00000000000003" width="500" height="40" as="geometry" />
        </mxCell>
        <mxCell id="aJzNuYuJcPRWzjmUSJ6a-32" value="" style="shape=tableRow;horizontal=0;startSize=0;swimlaneHead=0;swimlaneBody=0;strokeColor=inherit;top=0;left=0;bottom=0;right=0;collapsible=0;dropTarget=0;fillColor=none;points=[[0,0.5],[1,0.5]];portConstraint=eastwest;fontStyle=1" parent="aJzNuYuJcPRWzjmUSJ6a-31" vertex="1">
          <mxGeometry width="500" height="40" as="geometry" />
        </mxCell>
        <mxCell id="aJzNuYuJcPRWzjmUSJ6a-33" value="无" style="shape=partialRectangle;html=1;whiteSpace=wrap;connectable=0;strokeColor=inherit;overflow=hidden;fillColor=none;top=0;left=0;bottom=0;right=0;pointerEvents=1;fontStyle=1" parent="aJzNuYuJcPRWzjmUSJ6a-32" vertex="1">
          <mxGeometry width="125" height="40" as="geometry">
            <mxRectangle width="125" height="40" as="alternateBounds" />
          </mxGeometry>
        </mxCell>
        <mxCell id="aJzNuYuJcPRWzjmUSJ6a-34" value="无" style="shape=partialRectangle;html=1;whiteSpace=wrap;connectable=0;strokeColor=inherit;overflow=hidden;fillColor=none;top=0;left=0;bottom=0;right=0;pointerEvents=1;fontStyle=1" parent="aJzNuYuJcPRWzjmUSJ6a-32" vertex="1">
          <mxGeometry x="125" width="125" height="40" as="geometry">
            <mxRectangle width="125" height="40" as="alternateBounds" />
          </mxGeometry>
        </mxCell>
        <mxCell id="aJzNuYuJcPRWzjmUSJ6a-35" value="修改/回退" style="shape=partialRectangle;html=1;whiteSpace=wrap;connectable=0;strokeColor=inherit;overflow=hidden;fillColor=none;top=0;left=0;bottom=0;right=0;pointerEvents=1;fontStyle=1" parent="aJzNuYuJcPRWzjmUSJ6a-32" vertex="1">
          <mxGeometry x="250" width="125" height="40" as="geometry">
            <mxRectangle width="125" height="40" as="alternateBounds" />
          </mxGeometry>
        </mxCell>
        <mxCell id="aJzNuYuJcPRWzjmUSJ6a-36" value="修改/回退" style="shape=partialRectangle;html=1;whiteSpace=wrap;connectable=0;strokeColor=inherit;overflow=hidden;fillColor=none;top=0;left=0;bottom=0;right=0;pointerEvents=1;fontStyle=1" parent="aJzNuYuJcPRWzjmUSJ6a-32" vertex="1">
          <mxGeometry x="375" width="125" height="40" as="geometry">
            <mxRectangle width="125" height="40" as="alternateBounds" />
          </mxGeometry>
        </mxCell>
        <mxCell id="aJzNuYuJcPRWzjmUSJ6a-39" value="" style="shape=table;startSize=0;container=1;collapsible=0;childLayout=tableLayout;fillColor=#e1d5e7;strokeColor=#9673a6;sketch=1;curveFitting=1;jiggle=2;fontStyle=1" parent="1" vertex="1">
          <mxGeometry x="440" y="422.34000000000003" width="500" height="126" as="geometry" />
        </mxCell>
        <mxCell id="aJzNuYuJcPRWzjmUSJ6a-40" value="" style="shape=tableRow;horizontal=0;startSize=0;swimlaneHead=0;swimlaneBody=0;strokeColor=inherit;top=0;left=0;bottom=0;right=0;collapsible=0;dropTarget=0;fillColor=none;points=[[0,0.5],[1,0.5]];portConstraint=eastwest;fontStyle=1" parent="aJzNuYuJcPRWzjmUSJ6a-39" vertex="1">
          <mxGeometry width="500" height="126" as="geometry" />
        </mxCell>
        <mxCell id="aJzNuYuJcPRWzjmUSJ6a-41" value="资源" style="shape=partialRectangle;html=1;whiteSpace=wrap;connectable=0;strokeColor=inherit;overflow=hidden;fillColor=none;top=0;left=0;bottom=0;right=0;pointerEvents=1;fontStyle=1" parent="aJzNuYuJcPRWzjmUSJ6a-40" vertex="1">
          <mxGeometry width="125" height="126" as="geometry">
            <mxRectangle width="125" height="126" as="alternateBounds" />
          </mxGeometry>
        </mxCell>
        <mxCell id="aJzNuYuJcPRWzjmUSJ6a-42" value="&lt;div&gt;参数&lt;/div&gt;资源&lt;div&gt;策略&lt;/div&gt;&lt;div&gt;依赖&lt;/div&gt;&lt;div&gt;断言&lt;/div&gt;&lt;div&gt;数据驱动&lt;/div&gt;" style="shape=partialRectangle;html=1;whiteSpace=wrap;connectable=0;strokeColor=inherit;overflow=hidden;fillColor=none;top=0;left=0;bottom=0;right=0;pointerEvents=1;fontStyle=1" parent="aJzNuYuJcPRWzjmUSJ6a-40" vertex="1">
          <mxGeometry x="125" width="125" height="126" as="geometry">
            <mxRectangle width="125" height="126" as="alternateBounds" />
          </mxGeometry>
        </mxCell>
        <mxCell id="aJzNuYuJcPRWzjmUSJ6a-43" value="&lt;div&gt;参数&lt;/div&gt;资源&lt;div&gt;策略&lt;/div&gt;&lt;div&gt;依赖&lt;/div&gt;&lt;div&gt;断言&lt;/div&gt;&lt;div&gt;数据驱动&lt;/div&gt;" style="shape=partialRectangle;html=1;whiteSpace=wrap;connectable=0;strokeColor=inherit;overflow=hidden;fillColor=none;top=0;left=0;bottom=0;right=0;pointerEvents=1;fontStyle=1" parent="aJzNuYuJcPRWzjmUSJ6a-40" vertex="1">
          <mxGeometry x="250" width="125" height="126" as="geometry">
            <mxRectangle width="125" height="126" as="alternateBounds" />
          </mxGeometry>
        </mxCell>
        <mxCell id="aJzNuYuJcPRWzjmUSJ6a-44" value="&lt;div&gt;参数&lt;/div&gt;资源&lt;div&gt;策略&lt;/div&gt;&lt;div&gt;依赖&lt;/div&gt;&lt;div&gt;断言&lt;/div&gt;&lt;div&gt;数据驱动&lt;/div&gt;" style="shape=partialRectangle;html=1;whiteSpace=wrap;connectable=0;strokeColor=inherit;overflow=hidden;fillColor=none;top=0;left=0;bottom=0;right=0;pointerEvents=1;fontStyle=1" parent="aJzNuYuJcPRWzjmUSJ6a-40" vertex="1">
          <mxGeometry x="375" width="125" height="126" as="geometry">
            <mxRectangle width="125" height="126" as="alternateBounds" />
          </mxGeometry>
        </mxCell>
        <mxCell id="aJzNuYuJcPRWzjmUSJ6a-46" value="&lt;span style=&quot;font-size: 21px; font-weight: 700; text-wrap: nowrap;&quot;&gt;路径栈&lt;/span&gt;" style="shape=ext;double=1;rounded=1;whiteSpace=wrap;html=1;strokeColor=#d79b00;align=center;verticalAlign=middle;fontFamily=Helvetica;fontSize=12;fontColor=default;fillColor=#ffe6cc;sketch=1;curveFitting=1;jiggle=2;" parent="1" vertex="1">
          <mxGeometry x="290" y="130.00000000000003" width="130" height="49.16" as="geometry" />
        </mxCell>
        <mxCell id="aJzNuYuJcPRWzjmUSJ6a-47" value="&lt;span style=&quot;font-size: 21px; text-wrap: nowrap;&quot;&gt;&lt;b&gt;操作&lt;/b&gt;&lt;/span&gt;" style="shape=ext;double=1;rounded=1;whiteSpace=wrap;html=1;strokeColor=#b85450;align=center;verticalAlign=middle;fontFamily=Helvetica;fontSize=12;fillColor=#f8cecc;sketch=1;curveFitting=1;jiggle=2;" parent="1" vertex="1">
          <mxGeometry x="290" y="253" width="130" height="147" as="geometry" />
        </mxCell>
        <mxCell id="aJzNuYuJcPRWzjmUSJ6a-48" value="&lt;span style=&quot;font-size: 21px; font-weight: 700; text-wrap: nowrap;&quot;&gt;模式&lt;/span&gt;" style="shape=ext;double=1;rounded=1;whiteSpace=wrap;html=1;strokeColor=#82b366;align=center;verticalAlign=middle;fontFamily=Helvetica;fontSize=12;fillColor=#d5e8d4;sketch=1;curveFitting=1;jiggle=2;" parent="1" vertex="1">
          <mxGeometry x="290" y="190.00000000000003" width="130" height="44" as="geometry" />
        </mxCell>
        <mxCell id="aJzNuYuJcPRWzjmUSJ6a-49" value="&lt;span style=&quot;font-size: 21px; font-weight: 700; text-wrap: nowrap;&quot;&gt;相关数据&lt;/span&gt;" style="shape=ext;double=1;rounded=1;whiteSpace=wrap;html=1;strokeColor=#9673a6;align=center;verticalAlign=middle;fontFamily=Helvetica;fontSize=12;fillColor=#e1d5e7;sketch=1;curveFitting=1;jiggle=2;" parent="1" vertex="1">
          <mxGeometry x="290" y="418.34000000000003" width="130" height="130" as="geometry" />
        </mxCell>
      </root>
    </mxGraphModel>
  </diagram>
</mxfile>
